<?xml version="1.0" standalone="no"?>
<!DOCTYPE svg PUBLIC "-//W3C//DTD SVG 20010904//EN"
 "http://www.w3.org/TR/2001/REC-SVG-20010904/DTD/svg10.dtd">
<svg version="1.0" xmlns="http://www.w3.org/2000/svg"
 width="256.000000pt" height="256.000000pt" viewBox="0 0 256.000000 256.000000"
 preserveAspectRatio="xMidYMid meet">

<g transform="translate(0.000000,256.000000) scale(0.100000,-0.100000)"
fill="#000000" stroke="none">
<path d="M0 1280 l0 -1280 1280 0 1280 0 0 1280 0 1280 -1280 0 -1280 0 0
-1280z m1355 937 c20 -35 34 -46 68 -56 23 -7 133 -48 243 -92 111 -43 206
-79 210 -79 5 1 -7 10 -26 21 -45 26 -27 20 95 -31 154 -65 175 -77 191 -115
15 -37 18 -177 4 -230 -9 -37 -11 -27 -19 112 l-6 111 -112 -62 c-61 -34 -115
-65 -119 -69 -4 -4 13 -7 37 -6 73 2 88 -7 83 -48 -3 -20 1 -42 7 -49 9 -11 8
-14 -4 -14 -9 0 -20 -6 -24 -12 -4 -7 -18 -19 -31 -26 -20 -11 -27 -11 -48 3
-13 8 -24 13 -24 10 0 -3 -11 6 -25 20 -14 14 -30 25 -35 25 -6 0 -10 6 -10
13 -1 43 -17 39 -216 -63 -109 -56 -203 -105 -209 -109 -40 -28 -64 -30 -112
-7 -111 54 -147 57 -236 20 -34 -15 -72 -30 -85 -35 -22 -9 -23 -10 -7 -37 13
-22 24 -28 46 -26 34 2 37 -2 53 -70 12 -49 79 -156 99 -156 4 0 7 24 7 53 -1
28 1 61 3 72 3 11 6 27 7 35 0 11 3 10 12 -4 12 -21 15 -84 22 -416 3 -124 5
-232 6 -241 0 -22 36 -31 66 -17 l24 11 1 286 c1 177 5 267 9 236 5 -27 8
-168 9 -312 0 -210 3 -268 15 -295 9 -18 14 -24 13 -14 -1 10 3 21 9 23 7 2 9
-8 6 -29 l-4 -33 33 30 33 30 -18 -30 c-10 -16 -27 -38 -38 -47 -14 -12 -21
-33 -23 -64 -2 -25 -10 -53 -18 -62 -14 -14 -18 -13 -41 2 -32 20 -33 13 -4
-27 l22 -31 -74 40 c-41 22 -170 92 -287 154 -116 63 -209 118 -206 123 3 5
23 5 46 2 32 -6 39 -4 34 6 -3 8 -17 41 -31 74 l-27 60 91 -94 c107 -110 199
-186 257 -213 23 -10 45 -23 49 -29 3 -6 13 -8 21 -5 10 4 13 2 10 -8 -6 -14
30 -36 49 -29 16 6 -64 150 -86 156 -10 3 -24 0 -30 -7 -10 -9 -10 -6 -1 12 7
13 17 20 23 16 14 -9 -43 96 -126 230 -34 54 -70 103 -82 108 -16 7 -32 5 -65
-12 -25 -12 -36 -14 -25 -5 11 8 24 15 29 15 20 0 -18 32 -73 61 -32 17 -69
43 -82 57 l-23 26 35 -25 c19 -14 51 -33 70 -42 19 -10 48 -28 63 -41 28 -24
57 -25 57 -3 0 6 -15 24 -33 41 -19 17 -38 38 -43 46 -5 8 -29 28 -52 43 -49
32 -51 47 -2 22 17 -9 36 -15 41 -13 5 2 -10 32 -34 68 -81 121 -199 322 -237
404 -62 133 -63 171 -1 85 16 -21 31 -36 34 -33 3 3 19 -2 36 -11 24 -12 31
-12 31 -3 1 7 16 -5 35 -26 19 -22 35 -35 35 -29 0 12 -81 93 -92 93 -8 0 -54
69 -64 94 -3 8 7 10 36 8 34 -3 40 -7 35 -21 -20 -46 -18 -49 28 -52 l45 -4
-15 25 c-26 45 -37 55 -80 74 -48 21 -64 45 -30 47 12 1 40 2 62 4 22 1 103
29 184 63 79 34 146 61 148 59 2 -2 -55 -30 -127 -62 -71 -31 -130 -59 -130
-61 0 -3 149 -74 156 -74 2 0 4 9 4 19 0 30 11 31 65 5 64 -30 76 -30 96 4 9
15 44 72 78 127 33 54 61 103 61 107 0 12 -35 9 -48 -4 -9 -9 -12 -9 -12 0 0
18 -16 15 -63 -14 -35 -23 -28 -12 47 65 88 90 89 92 68 107 -12 8 -27 12 -32
9 -6 -3 -10 -4 -10 -1 0 3 26 19 58 35 31 16 68 38 82 50 38 31 56 26 85 -22z
m688 -130 c-3 -5 -10 -4 -15 1 -6 6 -7 16 -3 22 6 9 9 9 16 -1 4 -7 5 -17 2
-22z m-1594 -196 c-24 -19 -24 -21 -29 -278 l-6 -258 -2 258 c-2 245 -1 258
18 277 11 11 25 20 31 20 6 0 1 -9 -12 -19z m86 -61 c7 -12 -2 -12 -30 0 -19
8 -19 9 2 9 12 1 25 -3 28 -9z m1139 -299 c9 -24 15 -46 12 -48 -9 -10 -26 9
-26 28 0 11 -6 22 -14 25 -8 3 -13 13 -11 22 2 9 4 21 4 27 2 16 17 -8 35 -54z
m-24 -70 c-1 -13 -29 45 -29 59 0 8 6 0 14 -19 8 -18 15 -36 15 -40z m420 45
c0 -8 -4 -18 -10 -21 -5 -3 -10 3 -10 14 0 12 5 21 10 21 6 0 10 -6 10 -14z
m267 -190 c-10 -8 -28 -11 -39 -8 -21 5 -21 6 -2 13 10 4 28 8 39 8 19 0 19 0
2 -13z m-896 -56 c5 -3 33 -5 64 -5 44 1 56 -2 60 -16 3 -9 24 -29 45 -44 22
-16 38 -30 35 -33 -3 -3 -13 1 -23 9 -10 8 -4 1 12 -14 l31 -28 5 48 c3 31 0
57 -8 73 -13 23 -12 22 8 -3 25 -31 76 -61 84 -49 3 5 -6 32 -20 62 -13 29
-23 55 -21 57 3 2 10 -10 17 -27 7 -17 26 -42 42 -56 19 -15 41 -53 59 -97 47
-119 36 -181 -41 -227 -23 -14 -83 -52 -133 -85 -90 -60 -205 -120 -219 -117
-5 1 -7 -15 -7 -35 1 -24 3 -30 6 -15 5 26 23 20 23 -8 0 -23 15 -15 300 148
178 102 221 129 233 149 4 7 14 10 22 6 11 -4 2 -15 -31 -42 -41 -31 -44 -36
-26 -39 13 -2 19 -8 15 -18 -3 -10 2 -14 18 -14 12 0 20 -3 16 -6 -10 -10 -98
6 -92 17 11 16 -48 -11 -157 -74 -60 -33 -108 -67 -108 -74 0 -7 -9 -17 -20
-23 -12 -6 -20 -7 -20 -1 0 10 -129 -50 -172 -81 l-28 -19 1 373 c0 278 3 365
11 343 6 -16 15 -32 19 -35z m-151 0 c0 -5 -2 -10 -4 -10 -3 0 -8 5 -11 10 -3
6 -1 10 4 10 6 0 11 -4 11 -10z m-40 -20 c0 -5 -2 -10 -4 -10 -3 0 -8 5 -11
10 -3 6 -1 10 4 10 6 0 11 -4 11 -10z m820 -61 c0 -5 -7 -9 -15 -9 -15 0 -20
12 -9 23 8 8 24 -1 24 -14z m75 11 c-3 -5 -10 -10 -16 -10 -5 0 -9 5 -9 10 0
6 7 10 16 10 8 0 12 -4 9 -10z m-1478 -72 c-3 -7 -5 -2 -5 12 0 14 2 19 5 13
2 -7 2 -19 0 -25z m-87 -8 c0 -5 -4 -10 -10 -10 -5 0 -10 5 -10 10 0 6 5 10
10 10 6 0 10 -4 10 -10z m1557 -22 c-3 -7 -5 -2 -5 12 0 14 2 19 5 13 2 -7 2
-19 0 -25z m2 -145 c2 -137 -5 -149 -72 -132 -26 6 -47 13 -47 16 0 2 11 14
25 27 13 13 21 27 17 32 -4 5 8 -4 26 -20 l32 -30 1 45 c1 24 0 75 0 112 -1
41 2 67 7 63 5 -3 10 -54 11 -113z m-1512 91 c-3 -3 -12 -4 -19 -1 -8 3 -5 6
6 6 11 1 17 -2 13 -5z m600 -66 c-3 -8 -6 -5 -6 6 -1 11 2 17 5 13 3 -3 4 -12
1 -19z m-504 -138 c-4 -17 -8 -18 -20 -8 -13 10 -13 13 4 19 10 4 19 8 20 8 0
1 -1 -8 -4 -19z m557 -1 c0 -5 -4 -9 -10 -9 -5 0 -10 7 -10 16 0 8 5 12 10 9
6 -3 10 -10 10 -16z m287 -121 c-3 -7 -5 -2 -5 12 0 14 2 19 5 13 2 -7 2 -19
0 -25z m343 -42 c-19 -12 -116 -69 -215 -126 -99 -57 -226 -131 -282 -166 -57
-34 -105 -58 -108 -54 -3 5 11 18 32 29 21 11 58 39 83 62 25 23 59 46 75 50
17 5 51 28 77 52 27 24 49 42 51 41 7 -7 135 48 212 91 85 47 134 61 75 21z
m-870 -92 c0 -8 -4 -12 -10 -9 -5 3 -10 10 -10 16 0 5 5 9 10 9 6 0 10 -7 10
-16z"/>
<path d="M1660 2026 c0 -38 -45 -64 -118 -68 l-62 -3 60 -134 c32 -73 61 -135
63 -137 2 -2 98 41 213 97 167 81 205 103 189 109 -13 6 -15 9 -5 9 27 2 -43
38 -170 89 -176 70 -170 68 -170 38z"/>
<path d="M1155 1910 c-10 -11 -15 -26 -11 -36 4 -11 2 -15 -8 -11 -9 4 -27
-13 -50 -49 -40 -59 -44 -74 -21 -74 9 0 18 -6 21 -14 3 -8 23 -18 45 -21 27
-5 45 -15 56 -32 13 -19 22 -23 42 -18 14 3 31 12 38 18 13 13 31 177 18 165
-4 -4 -14 0 -23 9 -14 14 -16 14 -23 -3 -5 -15 -11 -7 -25 34 -20 56 -31 63
-59 32z"/>
<path d="M1310 1777 c0 -40 13 -67 32 -67 9 0 11 71 2 94 -13 34 -34 17 -34
-27z"/>
<path d="M1450 1605 c-58 -30 -115 -55 -126 -55 -12 0 -46 11 -77 24 -30 14
-57 22 -61 19 -8 -9 112 -63 140 -63 22 0 203 96 229 121 16 15 4 10 -105 -46z"/>
<path d="M850 1646 c0 -2 7 -9 15 -16 9 -7 15 -8 15 -2 0 5 -7 12 -15 16 -8 3
-15 4 -15 2z"/>
<path d="M890 1622 c0 -5 14 -15 31 -22 17 -7 38 -20 46 -28 8 -9 30 -17 47
-18 17 -2 45 -8 61 -13 26 -10 28 -9 12 3 -10 7 -52 26 -95 41 -42 15 -83 32
-89 37 -9 7 -13 7 -13 0z"/>
<path d="M1132 1614 c10 -10 20 -15 24 -12 3 4 -5 12 -18 18 -22 12 -22 12 -6
-6z"/>
<path d="M730 1613 c0 -7 8 -26 19 -43 13 -22 20 -27 24 -17 3 8 -5 27 -19 43
-13 16 -23 23 -24 17z"/>
<path d="M901 1420 c-1 -39 10 -70 25 -70 7 0 16 -11 20 -25 6 -26 39 -51 48
-37 2 4 -12 33 -32 64 -20 31 -42 65 -49 75 -11 17 -12 16 -12 -7z"/>
<path d="M826 1056 c21 -15 30 -14 19 3 -3 6 -14 11 -23 11 -13 0 -13 -2 4
-14z"/>
<path d="M1684 1194 c3 -9 6 -19 6 -23 0 -4 6 -8 14 -8 12 0 12 4 -1 24 -18
26 -28 31 -19 7z"/>
</g>
</svg>
