<svg fill="none" height="24" viewBox="0 0 24 24" width="24" xmlns="http://www.w3.org/2000/svg"><path d="m9.75 20.7496 1.473.8183c.2836.1576.4254.2364.5756.2672.1329.0274.2699.0274.4029 0 .1501-.0308.2919-.1096.5755-.2672l1.473-.8183m-9-2.5-1.42703-.7928c-.29951-.1664-.44929-.2496-.55834-.3679-.09647-.1047-.16948-.2288-.21415-.364-.05048-.1528-.05048-.3241-.05048-.6667v-1.5586m0-5v-1.55856c0-.34264 0-.51396.05048-.66676.04467-.13518.11768-.25926.21415-.36395.10905-.11833.25882-.20154.55834-.36794l1.42703-.79279m4.5-2.5 1.473-.81832c.2836-.15756.4254-.23634.5756-.26722.1329-.02734.2699-.02734.4029 0 .1501.03088.2919.10966.5755.26722l1.473.81832m4.5 2.5 1.427.79279c.2996.1664.4493.2496.5584.36794.0964.10469.1695.22877.2141.36395.0505.1528.0505.32412.0505.66676v1.55856m0 5v1.5586c0 .3426 0 .5139-.0505.6667-.0446.1352-.1177.2593-.2141.364-.1091.1183-.2588.2015-.5584.3679l-1.427.7928m-9-7.5 2.25 1.25m0 0 2.25-1.25m-2.25 1.25v2.5m-9-7.5 2.25 1.25m13.5 0 2.25-1.25m-9 12.5v2.5" stroke="#000" stroke-linecap="round" stroke-linejoin="round" stroke-width="2"/></svg>